<?xml version="1.0" encoding="UTF-8"?>
<svg width="517px" height="763px" viewBox="0 0 517 763" version="1.1" xmlns="http://www.w3.org/2000/svg" xmlns:xlink="http://www.w3.org/1999/xlink">
    <title>Group</title>
    <defs>
        <polygon id="path-1" points="0.767584788 0 515.767585 0 515.767585 762.94 0.767584788 762.94"></polygon>
    </defs>
    <g id="Page-1" stroke="none" stroke-width="1" fill="none" fill-rule="evenodd">
        <g id="Landscape-18" transform="translate(1.000000, 0.000000)">
            <g id="Group" transform="translate(-0.767585, 0.000000)">
                <mask id="mask-2" fill="white">
                    <use xlink:href="#path-1"></use>
                </mask>
                <g id="Clip-2"></g>
                <polygon id="Fill-1" fill="#E9E3D9" mask="url(#mask-2)" points="0.767584788 762.94 515.767585 762.94 515.767585 0 0.767584788 0"></polygon>
                <path d="M239.374585,167.523 C302.821585,150.239 370.931585,182.399 398.126585,245.81 C428.165585,315.855 396.978585,397.678 328.525585,428.415 C310.145585,436.668 290.935585,440.404 272.079585,440.099 C274.955585,439.11 277.811585,437.99 280.638585,436.736 C342.632585,409.251 367.977585,327.932 337.202585,255.255 C317.639585,209.054 280.075585,177.397 239.374585,167.523" id="Fill-3" fill="#FDF4E9" mask="url(#mask-2)"></path>
                <path d="M48.5525848,522.261 C46.7185848,517.721 36.7955848,492.801 54.4535848,474.884 C76.3345848,452.682 106.098585,438.301 135.450585,428.203 C146.123585,424.531 158.385585,419.372 169.575585,417.724 C194.298585,414.083 219.894585,417.78 244.583585,413.749 C260.578585,411.138 276.431585,404.546 291.434585,398.487 C321.194585,386.469 342.056585,358.115 375.623585,355.495 C386.369585,354.657 402.564585,352.312 412.478585,357.207 C425.344585,363.56 436.870585,372.428 450.613585,377.181 C470.371585,384.015 492.247585,387.964 512.734585,391.828 C530.485585,395.176 547.897585,400.525 565.428585,405.048 C577.528585,408.17 592.372585,406.084 603.668585,410.853 C614.026585,415.225 623.938585,422.061 633.957585,427.24 C644.704585,432.795 664.189585,442.729 668.122585,455.563 C671.386585,466.214 667.784585,481.033 664.223585,491.001 C645.182585,544.285 598.191585,557.774 551.272585,580.494 C534.422585,588.653 519.036585,598.589 500.916585,603.969 C471.664585,612.654 451.844585,604.697 421.705585,602.402 C372.995585,598.694 325.399585,592.158 277.154585,583.939 C255.474585,580.248 234.177585,572.579 212.423585,569.663 C198.507585,567.798 183.518585,566.007 169.553585,565.412 C137.590585,564.05 106.904585,569.884 77.0975848,554.557 C64.6195848,548.14 53.8355848,535.346 48.5525848,522.261" id="Fill-4" fill="#DCC7B1" mask="url(#mask-2)"></path>
                <path d="M-95.5324152,471.636 C-77.7244152,439.665 -38.6024152,423.454 -32.1454152,420.462 C-13.4454152,411.797 8.67758479,407.052 29.1875848,406.227 C62.4765848,404.89 86.3945848,426.728 126.785585,451.925 C140.710585,460.611 166.349585,465.63 182.560585,465.927 C204.533585,466.33 215.353585,496.846 237.141585,499.326 C249.905585,500.779 261.758585,501.406 274.185585,505.155 C288.021585,509.328 305.008585,513.708 316.935585,522.51 C338.644585,538.53 371.129585,543.394 373.672585,562.938 C377.851585,595.054 258.448585,675.361 228.312585,679.032 C205.854585,681.767 166.447585,773.011 144.309585,766.945 C128.024585,762.483 0.859584788,775.931 -16.1914152,775.068 C-70.8324152,772.306 -61.1074152,697.155 -108.612415,674.433 C-122.021415,668.019 -125.727415,662.427 -125.985415,647.786 C-126.561415,614.924 -109.967415,497.551 -95.5324152,471.636" id="Fill-5" fill="#CDA978" mask="url(#mask-2)"></path>
                <path d="M-37.5164152,733.357 C-34.9274152,730.501 -26.5194152,726.147 -21.7934152,721.592 C-10.4994152,710.703 13.1975848,686.858 30.2475848,668.027 C36.9295848,660.647 64.9295848,637.832 74.0965848,633.311 C107.482585,616.849 144.978585,608.204 181.017585,600.527 C200.645585,596.347 222.902585,593.633 241.419585,585.667 C256.043585,579.375 273.304585,572.833 286.208585,563.602 C320.467585,539.099 360.501585,498.537 399.267585,483.563 C423.174585,474.33 453.227585,479.155 478.042585,479.565 C498.837585,479.909 526.013585,476.794 544.561585,488.656 C563.551585,500.801 577.894585,522.926 593.287585,539.287 C613.527585,560.8 632.458585,585.534 637.026585,616.063 C639.487585,632.51 635.567585,648.49 633.849585,664.707 C628.094585,719.048 607.115585,741.246 555.518585,757.248 C533.916585,763.947 526.731585,801.112 503.674585,801.602 C461.698585,802.494 419.919585,792.781 377.953585,791.941 C357.585585,791.532 336.987585,789.427 316.623585,790.903 C296.553585,792.358 275.124585,800.495 255.747585,805.705 C242.777585,809.192 229.006585,810.387 216.409585,815.199 C197.669585,822.357 167.109585,808.439 147.591585,813.123 C136.804585,815.713 122.917585,814.339 111.849585,813.979 C71.2955848,812.663 32.4635848,812.273 -7.16741521,801.557 C-16.5544152,799.019 -42.0924152,794.174 -46.0834152,781.923 C-48.9424152,773.147 -44.4194152,740.975 -37.5164152,733.357" id="Fill-6" fill="#AE9371" mask="url(#mask-2)"></path>
            </g>
        </g>
    </g>
</svg>