<?xml version="1.0" encoding="UTF-8"?>
<svg width="260px" height="351px" viewBox="0 0 260 351" version="1.1" xmlns="http://www.w3.org/2000/svg" xmlns:xlink="http://www.w3.org/1999/xlink">
    <title>Page 1</title>
    <defs>
        <path d="M0.56,133.784 C0.56,133.784 0.266,93.314 8.721,71.035 C11.939,62.556 26.327,37.082 31.807,29.215 C35.321,24.17 42.113,21.996 46.883,18.422 C71.284,0.14 108.566,-2.733 137.873,4.546 C151.092,7.83 174.681,19.692 184.954,28.681 C209.091,49.801 209.134,102.041 209.134,133.784 C209.134,154.047 207.862,227.737 207.327,242.256 C206.535,263.726 192.872,307.846 174.767,322.727 C156.561,337.691 139.067,343.632 116.902,344.318 C100.035,344.841 81.547,342.374 65.144,338.064 C22.359,326.822 0.145,290.69 0.145,242.256 C0.145,218.107 0.56,162.792 0.56,133.784" id="path-1"></path>
    </defs>
    <g id="Page-1" stroke="none" stroke-width="1" fill="none" fill-rule="evenodd">
        <g id="Composition-11" transform="translate(-141.000000, -218.000000)">
            <path d="M141.56,350.784 C141.56,350.784 141.266,310.314 149.721,288.035 C152.939,279.556 167.327,254.082 172.807,246.215 C176.321,241.17 183.113,238.996 187.883,235.422 C212.284,217.14 249.566,214.267 278.873,221.546 C292.092,224.83 315.681,236.692 325.954,245.681 C350.091,266.801 350.134,319.041 350.134,350.784 C350.134,371.047 348.862,444.737 348.327,459.256 C347.535,480.726 333.872,524.846 315.767,539.727 C297.561,554.691 280.067,560.632 257.902,561.318 C241.035,561.841 222.547,559.374 206.144,555.064 C163.359,543.822 141.145,507.69 141.145,459.256 C141.145,435.107 141.56,379.792 141.56,350.784" id="Fill-3" fill="#CEB698"></path>
            <g id="Group-9" transform="translate(141.000000, 218.000000)">
                <mask id="mask-2" fill="white">
                    <use xlink:href="#path-1"></use>
                </mask>
                <g id="Clip-5"></g>
                <path d="M-5.923,103.026 C-11.688,110.105 -22.344,140.498 -20.663,141.451 C-14.251,145.081 -2.95,169.814 4.485,171.141 C14.28,172.891 30.893,172.019 40.711,174.012 C47.115,175.31 61.124,169.916 67.329,171.825 C75.474,174.329 84.367,174.09 92.571,176.39 C100.56,178.63 107.063,184.55 115.19,186.737 C125.696,189.565 171.294,180.812 187.881,177.291 C191.251,176.575 205.844,173.965 208.432,171.378 C210.846,168.965 216.357,165.458 217.587,161.796 C218.517,159.022 220.054,156.004 220.806,153.039 C223.346,143.022 234.757,93.356 217.197,75.58 C210.436,68.737 131.699,83.031 115.163,85.216 C102.894,86.837 52.207,87.009 39.916,88.897 C28.579,90.64 16.183,92.763 4.96,97.328 C1.938,98.557 -3.469,100.013 -5.923,103.026" id="Fill-4" fill="#834A28" mask="url(#mask-2)"></path>
                <path d="M14.938,257.46 C14.938,257.46 30.586,261.745 39.726,261.675848 C54.202,261.563 68.884,261.544 82.941,256.841 C100.319,251.027 116.271,239.561 133.351,233.351 C136.476,232.216 139.649,232.517 142.809,231.844 C154.588,229.335 165.888,225.21 177.962,223.993 C184.685,223.316 191.481,223.195 198.216,222.784 C217.295,221.617 238.055,221.111 256.8,216.339 C261.48,215.147 263.17,213.035 266.665,209.222 C268.519,207.197 269.753,200.92 269.731289,197.797 C269.67,188.504 263.24,186.796 261.782,185.642 C239.656,168.15 227.917,171.053 202.445,171.516 C174.49,172.025 149.955,158.172 122.029,159.648 C103.336,160.636 14.444,166.466 -0.445,166.765 C-8.556,166.928 -23.031,171.033 -27.778,176.99 C-30.978,181.006 -48.33,214.563 -32.207,229.859 C-26.008,235.74 -18.761,239.859 -10.761,240.5 C-6.689,240.826 -1.812,239.797 2.042,241.727 C4.747,243.082 9.81,254.261 14.938,257.46" id="Fill-6" fill="#D3A07F" mask="url(#mask-2)"></path>
                <path d="M54.771,158.981 C54.771,158.981 51.559,157.176 50.942,156.56 C48.854,154.472 45.936,150.871 45.936,147.662 C45.936,145.199 46.452,142.82 46.627,140.377 C46.844,137.342 46.257,134.265 46.493,131.207 C46.537,130.615 46.591,130.024 46.649,129.432 C46.381,128.78 46.097,128.136 45.683,127.565 C44.464,125.891 43.11,124.307 42.177,122.441 C41.826,121.739 41.858,121.017 41.638,120.283 C41.23,118.927 40.557,117.651 40.154,116.238 C39.96,115.559 39.866,114.915 39.749,114.215 C39.432,112.313 38.033,108.422 40.019,106.932 C41.837,105.569 44.251,107.872 45.143,109.36 C45.716,110.314 45.714,111.529 46.222,112.462 C46.355,112.705 46.517,112.939 46.687,113.171 C46.563,111.224 46.439,109.29 46.222,107.337 C45.771,103.281 43.786,96.417 48.65,94.795 C49.554,94.494 51.909,97.226 52.103,97.614 C52.985,99.377 52.535,101.637 52.695,103.561 C53.309,110.93 52.968,118.282 52.729,125.642 C53.514,126.86 54.776,128.284 55.797,129.049 C56.057,129.244 56.408,129.409 56.758,129.455 C56.759,128.105 56.773,126.755 56.876,125.408 C57.291,120.018 57.415,114.474 57.415,109.091 C57.415,106.616 57.066,104.152 56.876,101.673 C56.636,98.545 57.162,95.377 56.876,92.233 C56.672,89.99 56.337,87.919 56.337,85.625 C56.337,83.316 56.704,80.935 56.472,78.613 C56.017,74.073 55.797,69.43 55.797,64.857 C55.797,60.66 54.737,56.465 56.876,52.721 C57.375,51.847 57.95,50.363 58.899,49.889 C60.049,49.314 61.893,51.618 62.136,52.585 C62.626,54.548 62.059,56.728 62.54,58.654 C63.047,60.683 63.214,63.12 63.214,65.262 C63.214,66.637 63.429,68.009 63.754,69.308 C63.98,70.216 63.619,71.289 63.619,72.14 C63.619,74.486 63.83,76.957 63.619,79.287 C63.4,81.694 63.051,84.856 63.349,87.244 C63.726,90.26 65.071,93.137 65.372,96.144 C65.555,97.984 67.447,127.173 67.244,129.199 C66.889,132.744 67.827,136.816 67.249,140.284 C66.911,142.307 67.57,144.59 66.919,146.544 C66.453,147.939 66.675,149.553 66.514,150.994 C66.335,152.613 66.875,154.205 67.139,154.04 C69.304,152.68 71.84,151.857 73.51,149.561 C74.561,148.117 75.504,145.268 76.051,143.599 C76.639,141.803 77.434,139.974 77.644,138.084 C78.033,134.578 78.64,131.084 78.992,127.565 C79.185,125.642 79.049,123.686 79.263,121.766 C79.504,119.594 78.052,98.656 78.357,96.976 C78.793,94.58 78.8,91.881 80.542,90.139 C80.971,89.71 82.116,88.73 82.7,88.925 C84.847,89.641 84.835,92.613 85.263,94.319 C86.252,98.28 86.412,117.693 86.28,118.617 C85.692,122.738 85.315,126.879 84.797,131.023 C84.392,134.265 84.207,136.96 83.038,139.837 C82.463,141.253 82.31,142.915 82.094,144.423 C81.825,146.31 80.87,149.095 79.99,150.847 C78.826,153.163 77.365,155.358 75.441,156.986 C74.078,158.14 67.789,161.934 67.517,162.478 C67.064,163.385 67.387,177.929 67.8,181.642 C68.1,184.356 68.414,187.265 68.204,190.004 C67.89,194.084 67.26,198.03 67.26,202.141 C67.26,206.838 66.383,213.376 61.461,215.223 C60.203,215.694 59.224,216.322 57.82,216.166 C52.267,215.549 55.528,209.871 55.528,206.592 C55.528,204.423 55.254,202.169 55.528,199.983 C55.621,199.233 55.875,198.6 55.797,197.825 C55.588,195.729 55.104,193.639 55.258,191.488 C55.48,188.366 55.569,185.7 55.258,182.587 C55.022,180.229 55.109,172.582 54.988,171.125 C54.89,169.958 54.771,158.981 54.771,158.981 Z M56.617,134.995 C55.097,134.496 53.16,133.753 52.561,133.734 C52.561,133.882 52.561,134.028 52.561,134.173 C52.561,137.63 53.259,141.131 53.639,144.557 C53.743,145.483 54.95,149.29 55.485,149.28301 C55.232,149.032 55.395,147.259 55.532,146.057 C55.596,145.502 55.653,145.068 55.662,144.962 C55.936,141.679 56.308,138.394 56.606,135.117 L56.617,134.995 Z" id="Fill-7" fill="#AE9371" mask="url(#mask-2)"></path>
                <path d="M-227.837,280.019 C-229.03,265.972 -220.581,247.836 -213.78,240.325 C-201.123,226.349 -180.212,217.652 -162.489,212.181 C-149.757,208.249 -136.254,206.419 -123.953,201.209 C-114.328,197.133 -105.034,189.274 -94.829,187.07 C-89.236,185.862 -83.573,186.675 -77.942,186.579 C-53.97,186.172 -32.198,197.834 -8.388,200.109 C6.761,201.557 21.768,203.007 37.013,203.721 C50.513,204.353 63.94,204.101 77.341,206.198 C97.959,209.425 117.102,218.02 137.574,221.511 C148.87,223.435 161.374,222.405 172.535,219.994 C180.74,218.222 190.182,213.584 198.816,214.409 C201.128,214.631 203.637,216.489 205.734,217.418 C210.145,219.373 214.618,221.367 219.121,223.07 C234.97,229.063 251.561,233.344 258.324,250.865 C260.032,255.289 262.087,259.164 261.751,264.147 C261.246,271.644 252.866,278.697 248.96,284.462 C243.756,292.141 239.905,300.835 232.715,307.051 C225.063,313.665 216.001,316.016 206.679,319.365 C188.556,325.874 169.92,331.043 150.652,333.017 C125.381,335.606 99.746,337.107 74.601,340.747 C64.963,342.142 55.555,345.198 45.867,346.583 C38.253,347.673 30.584,347.86 23.014,349.338 C9.223,352.03 -4.482,355.413 -18.185,358.516 C-24.723,359.997 -31.657,362.12 -38.432,362.597 C-144.107,370.045 -104.703,353.381 -194.427,363.638 C-220.739,366.646 -226.338,361.174 -238.758,362.938 C-242.999,363.541 -246.591,364.102 -250.782,362.517 C-257.669,359.913 -259.976,353.266 -261.493,346.677 C-262.21,343.572 -263.471,339.419 -262.47,336.219 C-261.455,332.968 -259.763,327.469 -257.089,325.156 C-249.356,318.471 -237.502,319.669 -231.813,309.759 C-229.047,304.943 -226.311,298.693 -226.087,293.06 C-225.91,288.602 -227.465,284.401 -227.837,280.019" id="Fill-8" fill="#934529" mask="url(#mask-2)"></path>
            </g>
            <path d="M200.888,529.869 C200.888,529.869 199.471,525.276 203.288,525.12 C211.73,524.774 219.98,524.235 228.42,524.235 C228.883,524.235 235.086,524.712 235.286,524.235 C237.935,517.935 238.574,509.726 237.882,502.944 C237.583,500.007 237.19,491.976 237.251,491.968 C245.619,490.666 252.542,490.812 260.987,489.827 C261.318,489.789 270.21,489.635 270.298,489.445 C273.541,482.433 271.962,470.284 271.704,462.66 C271.682,462.045 271.098,454.448 271.768,454.287 C283.537,451.457 296.651,454.63 308.611,452.721 C310.554,452.41 307.842,426.478 309.206,425.039 C311.778,422.324 326.227,423.852 330.812,423.625 C351.409,422.599 378.595,422.879 398.473,429.048 C399.772,429.451 397.941,446.199 397.873,448.246 C397.28,466.122 398.077,484.119 398.728,501.989 C399.303,517.747 398.748,533.657 399.657,549.384 C399.723,550.518 400.924,563.311 400.534,563.425 C387.527,567.2 373.27,566.262 359.902,567.205 C321.277,569.933 282.441,566.766 243.777,566.766 C232.431,566.766 221.081,565.942 209.764,565.942 C208.78,565.942 200.443,565.713 200.341,565.244 C198.223,555.514 200.888,540.366 200.888,529.869" id="Fill-10" fill="#AE9371"></path>
        </g>
    </g>
</svg>